HIERARCHY
ROOT Hips
{
  OFFSET 40.9192 92.6879 18.85
  CHANNELS 6 Xposition Yposition Zposition Zrotation Xrotation Yrotation
  JOINT LeftUpLeg
  {
    OFFSET 8.64259 1.95398 -2.38835
    CHANNELS 3 Zrotation Xrotation Yrotation
    JOINT LeftLeg
    {
      OFFSET 43.7702 0 0
      CHANNELS 3 Zrotation Xrotation Yrotation
      JOINT LeftFoot
      {
        OFFSET 40.6238 0 0
        CHANNELS 3 Zrotation Xrotation Yrotation
        JOINT LeftToeBase
        {
          OFFSET 12.7242 0 0
          CHANNELS 3 Zrotation Xrotation Yrotation
          End Site
          {
            OFFSET 0 0 0
          }
        }
      }
    }
  }
  JOINT RightUpLeg
  {
    OFFSET -8.2249 1.95398 -2.59336
    CHANNELS 3 Zrotation Xrotation Yrotation
    JOINT RightLeg
    {
      OFFSET 43.5653 0 0
      CHANNELS 3 Zrotation Xrotation Yrotation
      JOINT RightFoot
      {
        OFFSET 40.6238 0 0
        CHANNELS 3 Zrotation Xrotation Yrotation
        JOINT RightToeBase
        {
          OFFSET 12.7242 0 0
          CHANNELS 3 Zrotation Xrotation Yrotation
          End Site
          {
            OFFSET 0 0 0
          }
        }
      }
    }
  }
  JOINT Spine
  {
    OFFSET 0.165834 0.87714 6.61349
    CHANNELS 3 Zrotation Xrotation Yrotation
    JOINT Spine1
    {
      OFFSET 7.38963 1.71661e-005 0
      CHANNELS 3 Zrotation Xrotation Yrotation
      JOINT Spine2
      {
        OFFSET 11.9445 1.14441e-005 0
        CHANNELS 3 Zrotation Xrotation Yrotation
        JOINT Spine3
        {
          OFFSET 14.7254 4.19617e-005 0
          CHANNELS 3 Zrotation Xrotation Yrotation
          JOINT Spine4
          {
            OFFSET 10.9679 0 0
            CHANNELS 3 Zrotation Xrotation Yrotation
            JOINT RightShoulder
            {
              OFFSET 2.46616 -1.6653 3.69651
              CHANNELS 3 Zrotation Xrotation Yrotation
              JOINT RightArm
              {
                OFFSET 13.0012 0 0
                CHANNELS 3 Zrotation Xrotation Yrotation
                JOINT RightForeArm
                {
                  OFFSET 28.7848 1.52588e-005 0
                  CHANNELS 3 Zrotation Xrotation Yrotation
                  JOINT RightHand
                  {
                    OFFSET 26.5688 1.52588e-005 0
                    CHANNELS 3 Zrotation Xrotation Yrotation
                    End Site
                    {
                      OFFSET 0 0 0
                    }
                  }
                }
              }
            }
            JOINT LeftShoulder
            {
              OFFSET 2.38034 -1.29275 -3.7523
              CHANNELS 3 Zrotation Xrotation Yrotation
              JOINT LeftArm
              {
                OFFSET 16.3182 6.10351e-005 0
                CHANNELS 3 Zrotation Xrotation Yrotation
                JOINT LeftForeArm
                {
                  OFFSET 27.0901 0 0
                  CHANNELS 3 Zrotation Xrotation Yrotation
                  JOINT LeftHand
                  {
                    OFFSET 24.5451 1.52588e-005 0
                    CHANNELS 3 Zrotation Xrotation Yrotation
                    End Site
                    {
                      OFFSET 0 0 0
                    }
                  }
                }
              }
            }
            JOINT Neck
            {
              OFFSET 5.0226 -0.0266342 0
              CHANNELS 3 Zrotation Xrotation Yrotation
              JOINT Head
              {
                OFFSET 6.69363 2.86102e-005 0
                CHANNELS 3 Zrotation Xrotation Yrotation
                End Site
                {
                  OFFSET 0 0 0
                }
              }
            }
          }
        }
      }
    }
  }
}
MOTION
Frames:	18
Frame Time:	0.0416667
-23.1872 94.5248 -82.3574 90.6627 81.0242 89.1756 -167.025 36.4317 90.7813 -88.0897 23.688 -0.405113 37.7332 -12.8 -6.19426 32.6708 2.66235 8.51008 176.893 15.9947 95.7361 -37.5794 -5.04757 -0.962278 71.9604 -5.6735 -2.94423 32.9702 0.254608 -1.52866 0.454361 7.94411 -90.0378 10.9943 0.887186 -0.157081 -0.676364 0.879425 -0.195988 -23.2145 0.893393 0.11684 -3.20186 0.893396 0.11683 90.9981 -44.2931 -100.584 29.5918 -12.3966 -6.91498 -5.04433 -12.146 -62.9402 -18.7512 -0.546808 -1.74169 -100.639 -47.9486 62.2999 -25.2481 15.2358 9.66735 -3.83316 12.1032 -17.105 18.8866 2.55848 9.58341 20.814 1.18555 -1.16174 -4.22897 1.50921 4.96004 
-21.6208 102.415 -94.6055 97.2586 78.6255 78.6262 -160.092 44.0206 84.6959 -80.2739 20.5313 -2.60061 44.8487 -9.20807 -2.89073 35.3666 5.12529 7.53257 175.191 5.52982 88.9458 -26.5544 -12.1399 -2.49012 46.882 2.58124 2.69679 35.938 0.363073 -4.33995 0.974438 7.96131 -89.3073 10.9424 2.26068 1.16363 -0.726979 2.30971 1.06297 -23.2691 1.80648 1.78932 -3.25649 1.80648 1.78932 91.471 -42.2051 -100.313 29.9102 -12.6574 -8.70857 -9.44977 -8.43504 -78.2268 -20.0938 -0.33147 -3.12398 -95.5615 -45.3378 69.006 -26.9841 12.6179 23.3902 -2.74991 9.55813 -17.0286 15.0818 1.78274 7.74868 16.4228 -0.0735098 -1.18981 -1.84914 0.3008 2.66153 
-21.0408 107.364 -106.792 91.4117 74.3299 85.2653 -158.369 46.3096 84.4399 -65.1245 23.822 -6.24137 47.6496 -8.4781 -2.8463 39.0222 8.28488 5.45325 175.974 3.8577 89.0807 -20.4041 -14.9705 -2.85943 40.2293 4.3492 4.30593 32.271 0.406371 -6.85255 1.40122 7.8815 -89.2666 11.0964 3.12946 1.15669 -0.571193 3.17734 1.01771 -23.1252 2.63714 2.04417 -3.11252 2.63715 2.04415 91.8494 -37.8969 -100.75 28.7287 -12.3206 -11.3667 -16.779 -3.34789 -90.0451 -15.1166 -0.286702 -3.17262 -93.8774 -42.0725 70.5804 -31.2323 9.39566 35.2036 -2.09778 6.154 -16.4968 12.5863 1.23779 5.722 17.7865 0.52424 0.848674 -3.26772 0.29676 0.914567 
-20.1336 108.254 -119.406 89.7625 72.1949 87.468 -161.275 42.9395 86.4457 -47.4824 19.7816 -8.70692 52.2611 -5.7156 -2.64952 37.8479 7.37721 8.77866 175.192 1.48146 89.8505 -7.64363 -10.0164 -2.22309 43.9944 3.14744 2.95055 30.4611 0.285687 -3.9308 1.47819 7.82943 -89.2374 11.2001 3.29666 1.19494 -0.467031 3.34603 1.04855 -23.0234 2.78509 2.13097 -3.01077 2.78508 2.13096 91.8506 -36.97 -100.995 23.9827 -12.4656 -13.8859 -16.5642 0.728456 -98.2502 -16.7251 0.00175117 -5.17607 -92.5657 -37.8414 71.3589 -36.9184 7.98665 43.3683 -2.91669 4.98682 -14.5216 11.5001 1.06914 5.15405 18.348 1.2493 1.52871 -4.64149 0.798333 -0.223034 
-19.3859 104.301 -132.312 92.5833 72.1137 86.3405 -166.762 39.1963 89.2433 -33.1343 14.8678 -7.72642 59.0537 -0.975354 -0.403872 37.668 7.22643 9.2756 173.192 1.33034 90.7573 -9.17773 -9.66457 0.576737 47.3099 2.65954 2.25645 34.9387 0.342648 -2.07049 1.42617 7.90644 -89.4571 11.0524 3.09073 0.781748 -0.614988 3.12214 0.644827 -23.1722 2.71282 1.67505 -3.15958 2.71283 1.67505 92.2504 -38.2707 -99.9408 18.6189 -10.7563 -16.1292 -14.4288 4.06759 -103.355 -15.9231 0.0303103 -5.46827 -92.3489 -36.5007 71.2818 -38.2646 6.32974 47.7239 -2.09297 6.96366 -13.0921 8.44496 0.864391 5.68498 18.1035 2.01556 2.60489 -5.74071 1.26271 -0.27806 
-18.2822 97.0288 -144.497 100.879 71.8158 78.2685 -170.542 36.1095 90.4134 -22.0317 11.6402 -4.84531 63.5899 2.66792 0.750534 38.996 8.54743 11.2435 175.074 -1.54026 89.8212 -26.2043 -8.02189 -2.93615 68.3482 -4.93715 -2.38637 39.5641 0.412581 -3.74235 1.41898 8.20869 -89.4457 10.4471 3.08082 0.83003 -1.22037 3.11436 0.693509 -23.777 2.68886 1.7181 -3.76437 2.68887 1.7181 92.5399 -39.2063 -99.1941 16.8503 -10.1988 -18.4919 -14.8931 2.76154 -104.079 -23.5039 0.133901 -5.53425 -91.9236 -38.272 72.5935 -34.207 6.71332 47.9691 -1.67434 7.97303 -12.2041 7.73876 0.825358 6.13088 17.39 2.1083 3.09875 -4.4259 1.22974 -1.20385 
-17.822 92.4725 -159.222 95.8104 70.7648 85.0569 -171.153 36.6739 92.3057 -16.7947 9.81867 -3.98304 66.5454 5.48148 3.20609 39.6392 9.21309 12.1515 174.347 -7.54295 89.11 -31.1256 -7.81182 -4.38688 75.3336 -7.36971 -3.46751 47.5896 0.574317 -3.65684 1.61729 8.02541 -89.5379 10.8172 3.43367 0.599276 -0.849309 3.45671 0.447389 -23.4143 3.09469 1.60442 -3.40167 3.0947 1.60443 90.8491 -40.3274 -101.861 19.894 -11.2742 -16.255 -18.1246 -1.1695 -95.2757 -23.4898 0.199502 -5.62366 -92 -44.3335 74.2622 -28.2217 6.52421 37.8501 -1.23473 6.80502 -10.8312 14.7448 2.10358 10.1326 19.5292 1.92016 2.88775 -6.48938 1.07867 -1.91792 
-17.8489 91.3749 -176.484 90.6603 67.3444 90.0924 -168.902 34.8429 91.7963 -24.2736 8.87078 -5.18785 64.6991 4.71357 4.91557 39.5571 8.9047 8.25929 175.397 -4.79398 84.1956 -44.0541 -15.5011 -8.13521 54.1335 0.345814 0.750195 53.109 0.628836 -5.11002 1.94028 7.70084 -89.2195 11.4549 4.22508 1.12646 -0.209522 4.27057 0.939089 -22.7854 3.69102 2.34557 -2.77277 3.69103 2.34557 90.8837 -41.64 -101.452 26.4607 -15.9087 -10.7699 -12.0927 -13.2245 -75.6937 -23.7745 -0.23672 -3.55395 -92.5212 -48.0151 74.4628 -26.3298 5.7333 24.0746 -1.23274 -1.69995 -16.3573 11.5203 1.05091 5.06821 21.4691 1.1595 -1.91547 -8.17051 1.691 0.293058 
-17.2439 89.9663 -193.065 91.0677 74.286 88.4511 -166.909 34.0307 87.2329 -39.7819 14.9655 -6.92965 62.5272 2.86785 5.36732 34.2047 4.30625 -0.855691 -178.985 5.39388 84.3837 -68.8928 -10.064 -7.30727 31.1512 6.57323 7.26848 27.7908 0.412182 -7.26932 0.981829 7.60848 -88.9936 11.6338 2.42404 1.75312 -0.0361277 2.49884 1.64472 -22.5704 1.7853 2.40041 -2.5578 1.78529 2.40042 90.2419 -43.3831 -102.077 30.8789 -15.637 -1.49105 -4.05163 -20.0187 -51.1456 -27.819 -1.14448 0.234894 -98.1299 -50.3227 66.8306 -23.3074 10.3406 8.26118 -3.30908 -1.05328 -24.7914 15.425 1.118 3.20409 21.7645 0.929368 -3.49592 -9.87857 1.95992 -0.037843 
-17.3957 90.6983 -207.561 103.867 80.9525 76.686 -169.313 25.4903 85.6422 -46.525 15.671 -5.05556 70.9531 10.5594 6.43236 30.5574 1.60969 -2.9112 -177.785 26.9077 87.9805 -97.0993 -2.14446 -3.09448 26.7938 5.02537 6.20611 23.906 0.352431 -5.5731 0.218633 7.75354 -89.0477 11.3524 0.879238 1.81102 -0.319367 0.958069 1.77058 -22.8451 0.29442 1.99148 -2.83244 0.294413 1.99147 90.289 -48.5297 -100.727 29.6239 -10.6715 10.1644 -3.69771 -25.7087 -40.454 -17.8848 -1.47616 4.37364 -99.3752 -47.3726 63.9395 -19.8618 9.09887 -9.71379 -0.263768 2.02001 -35.995 21.4424 1.91494 5.11035 19.6585 0.295852 -5.56382 -9.21988 1.84255 0.613906 
-19.0238 97.0788 -221.851 122.93 80.4034 62.2323 -171.561 8.59934 89.8445 -34.4176 17.7825 -2.67973 62.4319 2.81166 2.45232 35.8645 5.5702 2.83129 174.8 44.6338 94.7435 -107.883 3.09275 -2.0298 34.1818 2.03864 2.46632 21.8276 0.790777 -9.08194 -0.327443 7.86462 -89.7725 11.1457 -0.545988 0.506029 -0.525243 -0.523187 0.529565 -23.0609 -0.672831 0.318543 -3.04829 -0.672828 0.318541 90.6374 -47.9432 -100.31 26.4325 -8.22737 19.4328 -10.6377 -36.4216 -40.0621 0.480705 -0.648677 5.18175 -97.0202 -46.5261 67.172 -18.9594 6.44758 -16.0233 7.05935 3.55418 -54.8791 22.4769 1.81266 4.25277 16.8618 4.23416 -5.65049 -10.3339 5.40041 4.11161 
-19.0958 104.523 -236.274 151.655 83.4007 35.788 -171.413 1.20655 92.6909 -24.9149 20.7702 -0.908037 37.2158 -13.5352 -8.35067 31.0876 1.2069 8.5509 165.61 52.9681 103.434 -105.661 -3.22755 -1.67081 41.5033 2.26659 2.2258 28.2744 0.436668 -6.71752 -0.986776 7.88621 -90.1213 11.1006 -2.02045 -0.0456534 -0.568754 -2.0205 0.0433469 -23.1157 -1.91327 -0.651002 -3.10304 -1.91328 -0.650996 91.5941 -49.1767 -98.5444 23.2406 -7.79059 28.5459 -12.7321 -36.889 -41.7947 8.31075 -0.222854 6.15158 -94.1822 -42.3216 70.1759 -17.2082 7.07025 -19.8776 12.8572 3.00912 -70.0808 42.57 2.10473 1.15062 13.7882 5.15534 -8.15345 -8.53795 6.72102 6.86455 
-18.9025 108.917 -250.016 -178.69 83.6509 5.09702 -171.845 -0.305336 92.6424 -14.6295 19.8623 -1.30585 42.5969 -9.61844 -6.10932 30.111 0.366356 7.87637 167.848 53.4477 102.474 -97.4098 -5.40634 -1.19477 48.6006 1.12833 1.00193 32.1921 0.385818 -6.37484 -1.17205 7.98982 -89.9889 10.8991 -2.32833 0.241632 -0.769745 -2.31544 0.343921 -23.3213 -2.29325 -0.469678 -3.3087 -2.29325 -0.469684 91.6537 -47.5888 -98.7845 26.6649 -5.0083 37.4819 -9.02211 -30.2553 -37.3587 4.9065 -0.290583 5.31405 -92.0035 -38.7725 72.606 -16.8811 4.87524 -23.7312 27.5473 -4.53581 -83.4018 49.3178 -5.318 -15.2956 13.8262 4.14924 -9.4558 -9.23225 5.9698 7.51241 
-18.7601 109.134 -264.726 -161.171 84.019 -13.4878 -171.05 1.63222 90.4699 -5.0256 9.43102 -3.33176 46.6174 -8.61615 -6.90509 32.6716 2.73657 6.91472 173.389 49.6776 98.7785 -83.9233 -4.94589 -0.890905 52.2399 0.439819 0.448312 33.7547 0.457453 -9.93513 -1.23468 7.93943 -89.9382 11.0008 -2.42927 0.354967 -0.667944 -2.41129 0.461593 -23.2211 -2.42358 -0.391977 -3.20845 -2.42357 -0.391988 91.1782 -43.8435 -100.412 31.5429 -1.9581 43.828 -8.46707 -23.9447 -36.1358 4.08031 -0.215049 4.99732 -90.8913 -38.0855 74.2908 -17.9461 -1.1732 -26.1699 27.4267 -13.1058 -95.9553 46.6894 -16.7739 -36.5763 13.9676 3.67932 -9.51877 -10.2739 5.43866 8.35452 
-18.8746 103.88 -279.523 -160.873 81.9978 -14.2174 -170.155 1.29408 91.3616 -7.10775 2.35055 -4.47482 47.4531 -7.48914 -5.40847 37.7402 7.23771 7.36447 175.898 42.7152 96.9896 -66.4601 -4.90394 -0.49889 52.515 0.957403 0.885955 31.2943 0.44084 -7.4375 -1.14713 8.16368 -89.8942 10.5521 -2.23615 0.410697 -1.11703 -2.21591 0.508767 -23.6675 -2.25615 -0.28069 -3.6549 -2.25615 -0.280695 90.4147 -44.6326 -101.467 30.3967 -2.15349 46.2633 -7.51226 -21.9611 -36.4294 3.41324 -0.219609 4.55289 -90.5525 -37.9011 74.8168 -21.6586 -10.5103 -26.6503 -176.021 2.4235 -58.9568 -17.3288 9.10796 -67.367 13.2126 2.61437 -9.13633 -9.28763 4.36805 7.10061 
-18.5121 95.0357 -293.782 -159.998 79.7339 -15.3773 -168.353 4.44234 90.5255 -33.8119 7.94282 -4.30426 70.0124 9.22308 0.921752 34.8585 4.71433 4.75033 176.985 36.746 95.8584 -45.015 -6.46178 -0.142674 48.9732 2.36794 2.10289 27.1995 0.855268 -9.97149 -1.14385 8.4078 -89.8086 10.0555 -2.19261 0.548055 -1.61384 -2.16637 0.644055 -24.1634 -2.2559 -0.136596 -4.15071 -2.2559 -0.136593 89.8678 -48.1342 -101.474 27.1157 -0.0378226 45.3617 -7.06927 -19.1717 -34.2348 -1.38437 -0.487313 4.21578 -89.8162 -36.9471 75.8113 -26.8443 -18.3678 -20.9862 -174.654 2.41753 -44.6711 -11.4638 5.00337 -62.8786 15.3071 2.68956 -10.1658 -9.16618 4.91108 7.71088 
-19.1674 90.6577 -310.067 -92.2544 81.7215 -78.8631 -168.055 8.35617 92.5794 -44.3299 12.7591 -2.0858 78.3902 17.3603 8.35757 41.5358 10.3479 4.88461 175.575 35.4838 96.0666 -14.4179 -3.98864 2.90615 43.4694 3.95111 3.75489 4.34531 6.32401 -26.2153 -1.3765 7.74102 -90.4983 11.3944 -2.96835 -0.643776 -0.272967 -2.99381 -0.512395 -22.8319 -2.63767 -1.50671 -2.81921 -2.63766 -1.50671 92.6488 -46.1714 -97.4652 35.4815 1.03095 31.1456 -1.68189 -14.6495 -22.9106 -7.6537 -0.871007 5.75436 -90.9623 -40.0952 74.8023 -25.9642 -18.993 -16.6257 -177.373 1.71046 -32.8168 -10.189 3.73754 -56.8568 29.643 2.53117 -16.1133 -29.7845 3.86776 19.3853 
-21.9974 89.1154 -329.425 -32.1131 62.4691 -122.769 -178.087 26.902 108.438 -55.2057 23.0495 6.24717 65.7805 5.37371 3.37554 54.7836 23.3727 11.6778 167.678 45.9614 102.867 -8.80235 16.8981 13.3848 39.4798 4.34196 4.49983 18.2383 3.00435 -17.6226 -2.32471 6.00732 -92.9237 14.7546 -6.04446 -4.94989 3.08918 -6.25614 -4.67902 -19.4352 -4.28094 -6.53447 0.577396 -4.28094 -6.53447 94.1636 -39.4855 -96.1963 44.8711 -3.31033 15.1662 -0.562493 -11.4594 -28.0753 -3.04408 -0.392815 3.12219 -84.5616 -44.868 86.2107 -24.6836 -7.7239 -24.6388 -178.261 6.109 -28.7753 -11.5358 4.35032 -56.0559 45.2415 6.89895 -18.1207 -65.8628 -0.755548 28.7245 
